<svg xmlns="http://www.w3.org/2000/svg" width="1200" height="630" viewBox="0 0 1200 630" role="img" aria-labelledby="title desc">
  <title id="title">FlappyK social preview</title>
  <desc id="desc">Can you beat a hidden historical market?</desc>
  <rect width="1200" height="630" fill="#0d1117"/>
  <rect x="44" y="44" width="1112" height="542" fill="#111827" stroke="#f1c40f" stroke-width="10"/>
  <g opacity="0.38" stroke-width="7">
    <line x1="120" y1="430" x2="1080" y2="430" stroke="#334155"/>
    <line x1="120" y1="330" x2="1080" y2="330" stroke="#334155"/>
    <line x1="120" y1="230" x2="1080" y2="230" stroke="#334155"/>
  </g>
  <g stroke-width="8">
    <line x1="180" y1="385" x2="180" y2="475" stroke="#2ecc71"/><rect x="158" y="410" width="44" height="44" fill="#2ecc71"/>
    <line x1="260" y1="300" x2="260" y2="400" stroke="#e74c3c"/><rect x="238" y="330" width="44" height="40" fill="#e74c3c"/>
    <line x1="340" y1="250" x2="340" y2="365" stroke="#2ecc71"/><rect x="318" y="280" width="44" height="55" fill="#2ecc71"/>
    <line x1="420" y1="200" x2="420" y2="320" stroke="#2ecc71"/><rect x="398" y="225" width="44" height="65" fill="#2ecc71"/>
    <line x1="500" y1="260" x2="500" y2="380" stroke="#e74c3c"/><rect x="478" y="290" width="44" height="55" fill="#e74c3c"/>
  </g>
  <text x="600" y="150" text-anchor="middle" fill="#ffffff" font-family="monospace" font-size="74" font-weight="700">FLAPPY K</text>
  <text x="600" y="235" text-anchor="middle" fill="#7ee787" font-family="monospace" font-size="34" font-weight="700">TRADE 3 HIDDEN MARKETS</text>
  <text x="600" y="515" text-anchor="middle" fill="#f1c40f" font-family="monospace" font-size="48" font-weight="700">CAN YOU BEAT THE MARKET?</text>
  <text x="600" y="565" text-anchor="middle" fill="#cbd5e1" font-family="monospace" font-size="24">REAL HISTORICAL K-LINES · RANKED BY EXCESS</text>
</svg>
